<svg width="20" height="23" viewBox="0 0 20 23" fill="none" xmlns="http://www.w3.org/2000/svg">
<path fill-rule="evenodd" clip-rule="evenodd" d="M9.99995 0.00952148C7.3766 0.00952148 5.24995 2.13617 5.24995 4.75952V5.19527C4.8693 5.2704 4.51746 5.37768 4.17956 5.53258C3.17413 5.9935 2.32296 6.73461 1.72811 7.66708C1.36807 8.23147 1.15443 8.86282 0.986607 9.633C0.82218 10.3876 0.691526 11.3283 0.525306 12.5251L0.5161 12.5914C0.302194 14.1315 0.134976 15.3354 0.0841864 16.3052C0.032619 17.2898 0.0950009 18.1103 0.391202 18.8636C0.875324 20.0949 1.76921 21.1215 2.92213 21.7704C3.62751 22.1674 4.43165 22.3421 5.41401 22.4264C6.38153 22.5095 7.59703 22.5095 9.15189 22.5095H10.848C12.4029 22.5095 13.6184 22.5095 14.5859 22.4264C15.5683 22.3421 16.3724 22.1674 17.0778 21.7704C18.2307 21.1215 19.1246 20.0949 19.6087 18.8636C19.9049 18.1103 19.9673 17.2898 19.9157 16.3052C19.8649 15.3354 19.6977 14.1314 19.4838 12.5913L19.4746 12.5251C19.3084 11.3283 19.1777 10.3876 19.0133 9.633C18.8455 8.86282 18.6318 8.23147 18.2718 7.66708C17.6769 6.73461 16.8258 5.9935 15.8203 5.53258C15.4824 5.37768 15.1306 5.2704 14.7499 5.19527V4.75952C14.7499 2.13617 12.6233 0.00952148 9.99995 0.00952148ZM5.99995 10.5095C5.58574 10.5095 5.24995 10.1737 5.24995 9.75952V6.73515C5.08707 6.78028 4.94106 6.8336 4.80465 6.89613C4.0615 7.23681 3.43238 7.78459 2.99271 8.47381C2.76575 8.82958 2.60097 9.26971 2.45221 9.95236C2.30146 10.6442 2.17819 11.528 2.00678 12.7622C1.78688 14.3455 1.62916 15.4858 1.58213 16.3836C1.5355 17.2741 1.60384 17.8485 1.78716 18.3147C2.14499 19.2248 2.80569 19.9836 3.65785 20.4632C4.09443 20.7089 4.65393 20.8556 5.54237 20.9319C6.43819 21.0089 7.58936 21.0095 9.18785 21.0095H10.812C12.4105 21.0095 13.5617 21.0089 14.4575 20.9319C15.346 20.8556 15.9055 20.7089 16.3421 20.4632C17.1942 19.9836 17.8549 19.2248 18.2127 18.3147C18.3961 17.8485 18.4644 17.2741 18.4178 16.3836C18.3707 15.4858 18.213 14.3454 17.9931 12.7621C17.8217 11.528 17.6984 10.6442 17.5477 9.95236C17.3989 9.26971 17.2342 8.82958 17.0072 8.47381C16.5675 7.78459 15.9384 7.23681 15.1953 6.89613C15.0588 6.8336 14.9128 6.78028 14.7499 6.73515V9.75952C14.7499 10.1737 14.4142 10.5095 13.9999 10.5095C13.5857 10.5095 13.2499 10.1737 13.2499 9.75952V6.53951C12.6161 6.51003 11.8338 6.50952 10.812 6.50952H9.18785C8.16611 6.50952 7.3838 6.51003 6.74995 6.53951V9.75952C6.74995 10.1737 6.41416 10.5095 5.99995 10.5095ZM10.8573 5.00952C11.7972 5.00951 12.5821 5.00951 13.2499 5.03817V4.75952C13.2499 2.9646 11.7949 1.50952 9.99995 1.50952C8.20502 1.50952 6.74995 2.9646 6.74995 4.75952V5.03817C7.41783 5.00951 8.20271 5.00951 9.14256 5.00952H10.8573Z" fill="#303030"/>
</svg>
