<svg width="20" height="20" viewBox="0 0 20 20" fill="none" xmlns="http://www.w3.org/2000/svg">
<path d="M3.06107 18.0787L3.50625 17.4751L3.06107 18.0787ZM1.95491 16.9558L2.56481 16.5193L1.95491 16.9558ZM18.0451 16.9558L17.4352 16.5193L18.0451 16.9558ZM16.9389 18.0787L16.4937 17.4751L16.9389 18.0787ZM16.9389 1.74477L16.4937 2.34836L16.9389 1.74477ZM18.0451 2.86769L17.4352 3.30419L18.0451 2.86769ZM3.06107 1.74477L3.50625 2.34836L3.06107 1.74477ZM1.95491 2.86769L2.56481 3.30419L1.95491 2.86769ZM11.4681 15.5162C11.76 15.81 12.2349 15.8114 12.5287 15.5194C12.8225 15.2274 12.8239 14.7526 12.5319 14.4588L11.4681 15.5162ZM10.237 13.2137L9.70508 13.7424H9.70508L10.237 13.2137ZM10.237 6.60978L10.769 7.13849V7.13848L10.237 6.60978ZM12.5319 5.36471C12.8239 5.07092 12.8225 4.59605 12.5287 4.30405C12.2349 4.01205 11.76 4.0135 11.4681 4.30729L12.5319 5.36471ZM8.01989 10.2298L7.27574 10.3233L7.27574 10.3233L8.01989 10.2298ZM8.01989 9.59367L7.27574 9.50023H7.27574L8.01989 9.59367ZM10 18.2981C8.10818 18.2981 6.75046 18.297 5.69925 18.1814C4.66276 18.0674 4.01381 17.8495 3.50625 17.4751L2.6159 18.6823C3.42267 19.2773 4.36831 19.5441 5.53527 19.6724C6.68751 19.7992 8.14209 19.7981 10 19.7981V18.2981ZM0.25 9.91174C0.25 11.7986 0.249001 13.273 0.3736 14.4405C0.499627 15.6213 0.761157 16.5765 1.34502 17.3923L2.56481 16.5193C2.19376 16.0009 1.97783 15.3373 1.86513 14.2813C1.751 13.2119 1.75 11.8315 1.75 9.91174H0.25ZM3.50625 17.4751C3.14541 17.209 2.82762 16.8865 2.56481 16.5193L1.34502 17.3923C1.699 17.8869 2.12779 18.3223 2.6159 18.6823L3.50625 17.4751ZM18.25 9.91174C18.25 11.8315 18.249 13.2119 18.1349 14.2813C18.0222 15.3373 17.8062 16.0009 17.4352 16.5193L18.655 17.3923C19.2388 16.5765 19.5004 15.6213 19.6264 14.4405C19.751 13.273 19.75 11.7986 19.75 9.91174H18.25ZM10 19.7981C11.8579 19.7981 13.3125 19.7992 14.4647 19.6724C15.6317 19.5441 16.5773 19.2773 17.3841 18.6823L16.4937 17.4751C15.9862 17.8495 15.3372 18.0674 14.3007 18.1814C13.2495 18.297 11.8918 18.2981 10 18.2981V19.7981ZM17.4352 16.5193C17.1724 16.8865 16.8546 17.209 16.4937 17.4751L17.3841 18.6823C17.8722 18.3223 18.301 17.8869 18.655 17.3923L17.4352 16.5193ZM10 1.52539C11.8918 1.52539 13.2495 1.52645 14.3007 1.64207C15.3372 1.75607 15.9862 1.97401 16.4937 2.34836L17.3841 1.14118C16.5773 0.546154 15.6317 0.279406 14.4647 0.151059C13.3125 0.0243301 11.8579 0.0253906 10 0.0253906V1.52539ZM19.75 9.91174C19.75 8.02493 19.751 6.55047 19.6264 5.38301C19.5004 4.20217 19.2388 3.24699 18.655 2.43119L17.4352 3.30419C17.8062 3.82263 18.0222 4.48621 18.1349 5.5422C18.249 6.61156 18.25 7.99201 18.25 9.91174H19.75ZM16.4937 2.34836C16.8546 2.6145 17.1724 2.93698 17.4352 3.30419L18.655 2.43119C18.301 1.9366 17.8722 1.50119 17.3841 1.14118L16.4937 2.34836ZM10 0.0253906C8.14209 0.0253906 6.68751 0.0243301 5.53527 0.151059C4.36831 0.279406 3.42267 0.546154 2.6159 1.14118L3.50625 2.34836C4.01381 1.97401 4.66276 1.75607 5.69925 1.64207C6.75046 1.52645 8.10818 1.52539 10 1.52539V0.0253906ZM1.75 9.91174C1.75 7.99201 1.751 6.61157 1.86513 5.5422C1.97783 4.48621 2.19376 3.82263 2.56481 3.30419L1.34502 2.43119C0.761157 3.24699 0.499627 4.20217 0.3736 5.38301C0.249001 6.55047 0.25 8.02493 0.25 9.91174H1.75ZM2.6159 1.14118C2.12779 1.50119 1.699 1.9366 1.34502 2.43119L2.56481 3.30419C2.82762 2.93697 3.14541 2.6145 3.50625 2.34836L2.6159 1.14118ZM12.5319 14.4588L10.769 12.685L9.70508 13.7424L11.4681 15.5162L12.5319 14.4588ZM10.769 7.13848L12.5319 5.36471L11.4681 4.30729L9.70508 6.08107L10.769 7.13848ZM10.769 12.685C10.0536 11.9653 9.56249 11.4695 9.23002 11.0493C8.90724 10.6413 8.79419 10.3765 8.76405 10.1364L7.27574 10.3233C7.35383 10.9452 7.64639 11.4651 8.05363 11.9799C8.4512 12.4824 9.01449 13.0476 9.70508 13.7424L10.769 12.685ZM9.70508 6.08107C9.01449 6.7759 8.45119 7.34104 8.05363 7.84358C7.64638 8.35837 7.35383 8.87825 7.27574 9.50023L8.76405 9.6871C8.79419 9.44703 8.90724 9.18224 9.23002 8.77423C9.56248 8.35398 10.0536 7.85822 10.769 7.13849L9.70508 6.08107ZM8.76405 10.1364C8.74532 9.98722 8.74532 9.83627 8.76405 9.6871L7.27574 9.50023C7.24143 9.77349 7.24143 10.05 7.27574 10.3233L8.76405 10.1364Z" fill="#EF3F55"/>
</svg>
