<svg width="22" height="20" viewBox="0 0 22 20" fill="none" xmlns="http://www.w3.org/2000/svg">
<path fill-rule="evenodd" clip-rule="evenodd" d="M19.8468 1.94509C18.5193 0.591254 17.0414 0.17243 15.6535 0.274034C14.3031 0.37289 13.087 0.95866 12.1988 1.52209C11.4984 1.96641 10.5014 1.96641 9.80091 1.52209C8.9127 0.958667 7.6966 0.372904 6.34624 0.274049C4.95834 0.172448 3.48046 0.591269 2.1529 1.94509C0.58562 3.54338 0.0939029 5.51641 0.291357 7.51217C0.486535 9.48494 1.35186 11.4904 2.50598 13.2673C3.66317 15.0491 5.14136 16.6487 6.62433 17.8103C8.07467 18.9463 9.65271 19.7595 10.9999 19.7595C12.3471 19.7595 13.9251 18.9463 15.3754 17.8103C16.8584 16.6487 18.3366 15.0491 19.4938 13.2673C20.6479 11.4904 21.5132 9.48494 21.7084 7.51217C21.9058 5.5164 21.4141 3.54338 19.8468 1.94509ZM13.0023 2.78874C13.7877 2.2905 14.7599 1.84346 15.763 1.77003C16.7285 1.69935 17.7692 1.96875 18.7758 2.99531C19.9791 4.22235 20.3774 5.72939 20.2157 7.36449C20.0516 9.02259 19.3084 10.7988 18.2358 12.4503C17.1663 14.0971 15.7996 15.5727 14.4505 16.6294C13.0688 17.7116 11.8278 18.2595 10.9999 18.2595C10.172 18.2595 8.93093 17.7116 7.54926 16.6294C6.20021 15.5727 4.83348 14.0971 3.76394 12.4503C2.69132 10.7988 1.94812 9.02259 1.78407 7.36449C1.6223 5.72939 2.02067 4.22235 3.2239 2.99531C4.23053 1.96877 5.27119 1.69936 6.23672 1.77005C7.23978 1.84348 8.21197 2.2905 8.99742 2.78874C10.1883 3.54419 11.8114 3.54419 13.0023 2.78874Z" fill="#303030"/>
</svg>
